<svg width="55" height="55" viewBox="0 0 55 55" fill="none" xmlns="http://www.w3.org/2000/svg">
<path d="M9.16699 0.75H45.833C50.4811 0.75 54.25 4.51891 54.25 9.16699V45.833C54.25 50.4811 50.4811 54.25 45.833 54.25H9.16699C4.51891 54.25 0.75 50.4811 0.75 45.833V9.16699C0.75 4.51891 4.51891 0.75 9.16699 0.75ZM10.4805 16.4395C10.0664 16.4395 9.73062 16.7754 9.73047 17.1895V37.8125C9.73047 38.2267 10.0663 38.5625 10.4805 38.5625H20.7803C21.246 38.5619 23.194 38.4999 25.0527 37.6689C25.9906 37.2496 26.938 36.6205 27.6514 35.6748C28.3719 34.7195 28.8206 33.4835 28.8203 31.918L28.8135 31.5498C28.7384 29.7431 28.1105 28.461 27.2793 27.5674C26.8833 27.1417 26.45 26.8176 26.0303 26.5664C26.2529 26.396 26.4806 26.1985 26.6953 25.9639C27.4089 25.1838 27.9658 24.0574 27.9658 22.4492C27.9658 20.9726 27.5611 19.8145 26.8926 18.9277C26.2303 18.0492 25.3475 17.4872 24.4688 17.127C22.7336 16.4157 20.8786 16.4395 20.3496 16.4395H10.4805ZM38.1553 21.0205C33.9136 21.0205 31.5788 22.9084 30.3486 25.0068C29.1536 27.0456 29.042 29.2057 29.042 29.792C29.042 30.9053 29.2748 32.2868 29.791 33.2734C30.2195 34.2725 30.6865 35.1799 31.3975 35.8975L31.5439 36.0391C32.2742 36.7241 33.2399 37.3979 34.2178 37.8564C34.2356 37.8648 34.254 37.872 34.2725 37.8789C35.4801 38.3325 36.7014 38.5625 37.9268 38.5625C39.7328 38.5625 41.3606 38.1672 42.7842 37.3525L43.0654 37.1846C44.5994 36.2304 45.5881 34.8093 46.3037 33.0244C46.3961 32.7934 46.3679 32.5313 46.2285 32.3252C46.089 32.1192 45.8563 31.9961 45.6074 31.9961H41.7666C41.5245 31.9962 41.2999 32.1129 41.1602 32.3057L41.1055 32.3926C40.8992 32.7789 40.7501 33.0596 40.2422 33.3779C39.6816 33.727 39.1396 33.9004 38.3789 33.9004C36.9336 33.9004 36.1487 33.3103 35.6943 32.6406C35.3993 32.2058 35.2303 31.7128 35.1426 31.2734H45.833C46.2472 31.2734 46.583 30.9377 46.583 30.5234C46.583 29.4247 46.5854 28.5109 46.4219 27.5312L46.3408 27.1064V27.1045L46.2725 26.833C46.0724 26.1109 45.5634 24.8092 44.4824 23.6162C43.224 22.2275 41.2195 21.0206 38.1553 21.0205ZM19.7705 29.3037C20.2513 29.3038 20.9577 29.3857 21.5176 29.7041C22.0191 29.9893 22.4516 30.4838 22.4512 31.499L22.4443 31.6768C22.4153 32.0739 22.2895 32.3557 22.1289 32.5664C21.9376 32.8173 21.6635 33.0096 21.3398 33.1543C20.6767 33.4507 19.9425 33.4843 19.7705 33.4844H15.583V29.3037H19.7705ZM37.9443 25.3428C38.7531 25.3428 39.3479 25.7566 39.7988 26.3516C40.0148 26.6365 40.1859 26.9508 40.3174 27.251H35.0674C35.1501 27.0541 35.2561 26.8414 35.3945 26.6338C35.831 25.9792 36.5788 25.3428 37.9443 25.3428ZM19.1729 21.5137C19.3418 21.5137 20.0341 21.5492 20.6553 21.8047C21.2562 22.0519 21.6387 22.4237 21.6387 23.0801C21.6387 23.853 21.2823 24.257 20.8574 24.5059C20.3867 24.7815 19.8312 24.8544 19.6025 24.8545H15.6299V21.5137H19.1729ZM32.083 16.4375C31.6689 16.4377 31.333 16.7734 31.333 17.1875V20.1328C31.3331 20.5468 31.669 20.8826 32.083 20.8828H43.542C43.956 20.8826 44.2919 20.5468 44.292 20.1328V17.1875C44.292 16.7734 43.9561 16.4377 43.542 16.4375H32.083Z" stroke="white" stroke-width="1.5" stroke-linejoin="round"/>
</svg>
