<svg width="55" height="55" viewBox="0 0 55 55" fill="none" xmlns="http://www.w3.org/2000/svg">
<path d="M46.2021 10.3271C46.202 9.95183 45.9247 9.63415 45.5527 9.58398C44.7721 9.4787 43.1317 9.25001 40.0527 9.25C36.7578 9.25 34.0178 10.1224 32.1094 12.1074C30.206 14.0872 29.25 17.0492 29.25 20.9727V24.25H22.5C22.0858 24.25 21.75 24.5858 21.75 25V32.5C21.75 32.9142 22.0858 33.25 22.5 33.25H29.25V54.25H5C2.65171 54.25 0.75 52.3483 0.75 50V5C0.75 2.65171 2.65171 0.75 5 0.75H50C52.346 0.75 54.25 2.65196 54.25 5V50C54.25 52.3483 52.3483 54.25 50 54.25H38.25V33.25H44.3154C44.6885 33.2498 45.0049 32.9749 45.0576 32.6055L46.1279 25.1055C46.1585 24.8904 46.0935 24.6729 45.9512 24.5088C45.8087 24.3446 45.6021 24.25 45.3848 24.25H38.25V21.7949C38.25 20.4076 38.4834 19.5489 38.8916 19.0381C39.2678 18.5677 39.9123 18.25 41.1299 18.25H45.4521C45.8664 18.25 46.2021 17.9142 46.2021 17.5V10.3271Z" stroke="white" stroke-width="1.5" stroke-linejoin="round"/>
</svg>
