<svg width="56" height="56" viewBox="0 0 56 56" fill="none" xmlns="http://www.w3.org/2000/svg">
<path d="M16.0957 0.75H39.0957C47.5599 0.750105 54.4502 7.63476 54.4502 16.0957V39.0957C54.4501 47.5599 47.5654 54.4502 39.1045 54.4502H16.1045C7.64023 54.4502 0.75 47.5655 0.75 39.1045V16.1045C0.75 7.64023 7.63469 0.75 16.0957 0.75ZM27.5996 13.0498C19.575 13.05 13.05 19.575 13.0498 27.5996C13.0498 35.6244 19.5749 42.1502 27.5996 42.1504C35.6245 42.1504 42.1504 35.6245 42.1504 27.5996C42.1502 19.5749 35.6244 13.0498 27.5996 13.0498ZM27.5996 19.1504C29.7006 19.1504 31.7214 19.9324 33.2715 21.3359L33.5752 21.625C35.1597 23.2096 36.0497 25.3587 36.0498 27.5996C36.0498 29.8407 35.1599 31.9905 33.5752 33.5752C31.9905 35.1599 29.8407 36.0498 27.5996 36.0498C25.4988 36.0497 23.4787 35.2676 21.9287 33.8643L21.625 33.5752C20.0403 31.9905 19.1504 29.8407 19.1504 27.5996C19.1505 25.4988 19.9325 23.4787 21.3359 21.9287L21.625 21.625C23.2096 20.0404 25.3587 19.1505 27.5996 19.1504ZM43.7002 8.4502C42.0164 8.4502 40.6504 9.81619 40.6504 11.5C40.6504 13.1838 42.0164 14.5498 43.7002 14.5498C45.3839 14.5497 46.75 13.1837 46.75 11.5C46.75 9.81625 45.3839 8.4503 43.7002 8.4502Z" stroke="white" stroke-width="1.5" stroke-linejoin="round"/>
</svg>
