<svg width="55" height="55" viewBox="0 0 55 55" fill="none" xmlns="http://www.w3.org/2000/svg">
<path d="M6.54785 0.75H48.4521C51.6522 0.75 54.25 3.34778 54.25 6.54785V48.4521C54.25 51.6522 51.6522 54.25 48.4521 54.25H6.54785C3.34778 54.25 0.75 51.6522 0.75 48.4521V6.54785C0.75 3.34778 3.34778 0.75 6.54785 0.75ZM9.16699 20.2021C8.75286 20.2021 8.41712 20.538 8.41699 20.9521V45.833C8.41699 46.2472 8.75278 46.583 9.16699 46.583H17.0234C17.4377 46.583 17.7734 46.2472 17.7734 45.833V20.9521C17.7733 20.538 17.4376 20.2021 17.0234 20.2021H9.16699ZM20.9521 20.2021C20.5381 20.2023 20.2023 20.5381 20.2021 20.9521V45.833C20.2021 46.2471 20.538 46.5829 20.9521 46.583H28.8096C29.2238 46.583 29.5596 46.2472 29.5596 45.833V32.7383C29.5596 31.5536 29.8609 30.3981 30.4678 29.5605C31.0533 28.7525 31.9492 28.1973 33.2881 28.1973H33.3809L33.6396 28.208C34.9065 28.2912 35.7543 28.8317 36.3105 29.5781C36.9246 30.4023 37.2266 31.5403 37.2266 32.7383V45.833L37.2305 45.9102C37.269 46.2883 37.5883 46.583 37.9766 46.583H45.833C46.2472 46.583 46.583 46.2472 46.583 45.833V31.7695C46.583 28.0028 45.4846 25.0973 43.6201 23.1289C41.7546 21.1594 39.1924 20.2022 36.418 20.2021C33.7038 20.2021 31.6602 21.0999 30.2949 22.0029C30.0223 22.1832 29.7783 22.3663 29.5596 22.54V20.9521C29.5594 20.5381 29.2237 20.2022 28.8096 20.2021H20.9521ZM17.7725 13.6729C17.7165 12.5565 17.2337 11.5539 16.3975 10.8369C15.5644 10.1228 14.423 9.72666 13.0957 9.72656C10.4496 9.72656 8.41699 11.3483 8.41699 13.7109C8.41712 16.052 10.4247 17.7734 13.0957 17.7734C14.4766 17.7733 15.6458 17.3566 16.4805 16.6152C17.3188 15.8705 17.7734 14.8368 17.7734 13.7109L17.7725 13.6729Z" stroke="white" stroke-width="1.5" stroke-linejoin="round"/>
</svg>
