<svg width="42" height="55" viewBox="0 0 42 55" fill="none" xmlns="http://www.w3.org/2000/svg">
<path d="M20.582 0.75C31.6023 0.75 40.414 9.56177 40.4141 20.582C40.4141 34.4557 32.8156 46.5714 21.582 54.0029C20.8565 54.3541 20.2534 54.2992 19.8545 54.0332L19.8369 54.0215L19.3027 53.6807C8.13396 46.4403 0.75 34.2601 0.75 20.582C0.750049 9.5618 9.5618 0.750049 20.582 0.75ZM20.582 10.6846C15.1367 10.6846 10.6846 15.1367 10.6846 20.582C10.6846 26.0274 15.1367 30.4794 20.582 30.4795C26.0274 30.4795 30.4795 26.0274 30.4795 20.582C30.4794 15.1367 26.0274 10.6846 20.582 10.6846Z" stroke="white" stroke-width="1.5"/>
</svg>
