<svg width="54" height="45" viewBox="0 0 54 45" fill="none" xmlns="http://www.w3.org/2000/svg">
<path d="M53.25 39.1309C53.2498 41.9682 50.9846 44.25 48.2139 44.25H5.78613C3.01527 44.25 0.750225 41.9682 0.75 39.1309V14.499L22.4395 29.1709L22.4463 29.1758L22.4688 29.1904C23.8157 30.0799 25.4195 30.5146 27 30.5146C28.4816 30.5146 29.9836 30.133 31.2754 29.3525L31.5312 29.1904L31.5381 29.1865L53.25 14.499V39.1309ZM5.78613 0.75H48.2139C50.9846 0.75 53.2498 3.03167 53.25 5.86914V6.80859L28.0693 23.8428C27.8411 23.9916 27.4632 24.124 27 24.124C26.5369 24.124 26.1589 23.9916 25.9307 23.8428H25.9297L0.75 6.80957V5.86914C0.750219 3.12038 2.87544 0.893426 5.52734 0.756836L5.78613 0.75Z" stroke="white" stroke-width="1.5" stroke-linejoin="round"/>
</svg>
