<svg width="52" height="55" viewBox="0 0 52 55" fill="none" xmlns="http://www.w3.org/2000/svg">
<path d="M25.3287 0.75C28.7099 0.75 31.7612 2.00867 33.9879 4.28613L34.2008 4.50977C36.4004 6.88149 37.5192 10.0581 37.3463 13.5049L37.3258 13.8398C36.7929 21.0488 31.3266 26.75 25.3287 26.75C19.5175 26.7499 14.1975 21.3974 13.3942 14.5088L13.3307 13.8379C13.0773 10.3369 14.1155 7.11919 16.2291 4.71582L16.4371 4.48535C18.6672 2.0848 21.8158 0.750034 25.3287 0.75Z" stroke="white" stroke-width="1.5"/>
<path d="M25.5703 32.1099C31.1349 32.1099 36.5451 33.6352 40.8672 36.3921L41.2822 36.6626C46.0564 39.8505 49.1294 44.3321 50.2256 49.6587L50.3252 50.1772C50.515 51.2287 50.2828 52.241 49.7217 52.9995L49.6055 53.147L49.6045 53.1479C49.313 53.4979 48.9473 53.7787 48.5342 53.9692C48.1726 54.1359 47.7822 54.2305 47.3857 54.2476L47.2158 54.2495H3.9248C3.52682 54.2547 3.13204 54.1825 2.7627 54.0366L2.60645 53.9702C2.24478 53.8036 1.91952 53.5676 1.64844 53.2769L1.53613 53.1489H1.53516C0.93071 52.4252 0.648326 51.4333 0.782227 50.3882L0.81543 50.1782C1.78384 44.7976 4.73713 40.2472 9.40137 36.9751L9.8584 36.6626C14.2463 33.7339 19.8261 32.1099 25.5703 32.1099Z" stroke="white" stroke-width="1.5"/>
</svg>
