<svg width="57" height="55" viewBox="0 0 57 55" fill="none" xmlns="http://www.w3.org/2000/svg">
<path d="M46.8652 0.75C47.8247 0.75 48.7467 1.09582 49.458 1.71484L49.5977 1.84277L51.4795 3.7334L51.4893 3.74316C53.4792 5.67125 54.7765 8.17276 55.1992 10.8721L55.2725 11.4141C55.5975 14.317 54.8957 17.242 53.2832 19.6992C44.4271 32.5123 33.1603 43.5476 20.0869 52.2119C17.7358 53.7014 14.9611 54.4041 12.1768 54.2217L11.6201 54.1738C8.83648 53.8733 6.23285 52.699 4.19238 50.8359L3.79199 50.4541L3.78223 50.4443L1.85156 48.5898C1.144 47.8763 0.750022 46.9228 0.75 45.9326C0.75 45.0013 1.09797 44.1024 1.72754 43.4053L1.85645 43.2686L10.0713 35.2881C10.7918 34.5928 11.7644 34.2002 12.7803 34.2002C13.7327 34.2002 14.6473 34.545 15.3516 35.1611L15.4893 35.2881L15.4902 35.2891C16.5003 36.2586 17.8547 36.7998 19.2617 36.7998C20.5807 36.7997 21.8528 36.3241 22.8389 35.4658L23.0322 35.2891L23.0381 35.2832L35.957 22.5977L35.9561 22.5967C36.394 22.1721 36.755 21.6773 37.0205 21.1318L37.1289 20.8945C37.4019 20.2538 37.543 19.5654 37.543 18.8701C37.5429 18.2618 37.4344 17.6592 37.2246 17.0889L37.1289 16.8457C36.8899 16.285 36.5537 15.7707 36.1367 15.3252L35.9531 15.1387C35.2512 14.4328 34.8604 13.488 34.8604 12.5068C34.8604 11.5217 35.2545 10.5731 35.9619 9.86621L35.9609 9.86523L44.1396 1.83691L44.1387 1.83594C44.8659 1.14082 45.8443 0.75007 46.8652 0.75Z" stroke="white" stroke-width="1.5"/>
</svg>
